<svg xmlns="http://www.w3.org/2000/svg" version="1.1" xmlns:xlink="http://www.w3.org/1999/xlink" xmlns:svgjs="http://svgjs.dev/svgjs" width="1000" height="171" viewBox="0 0 1000 171"><g transform="matrix(1,0,0,1,-0.6060604949005892,-0.11762613154206747)"><svg viewBox="0 0 396 68" data-background-color="#ffffff" preserveAspectRatio="xMidYMid meet" height="171" width="1000" xmlns="http://www.w3.org/2000/svg" xmlns:xlink="http://www.w3.org/1999/xlink"><g id="tight-bounds" transform="matrix(1,0,0,1,0.24000004401941055,0.046775303771113386)"><svg viewBox="0 0 395.5199999999999 67.90644720182324" height="67.90644720182324" width="395.5199999999999"><g><svg viewBox="0 0 395.5199999999999 67.90644720182324" height="67.90644720182324" width="395.5199999999999"><g><svg viewBox="0 0 395.5199999999999 67.90644720182324" height="67.90644720182324" width="395.5199999999999"><g><svg viewBox="0 0 395.5199999999999 67.90644720182324" height="67.90644720182324" width="395.5199999999999"><g><svg viewBox="0 0 395.5199999999999 67.90644720182324" height="67.90644720182324" width="395.5199999999999"><g transform="matrix(1,0,0,1,0,0)"><svg width="395.5199999999999" viewBox="1.8300000429153442 -32.7400016784668 192.8000030517578 33.11000061035156" height="67.90644720182324" data-palette-color="#6415ff"><path d="M8.25 0.37Q4.93 0.37 3.38-1.38 1.83-3.13 1.83-6.01L1.83-6.01Q1.83-8.18 2.73-9.92 3.64-11.67 6.4-12.87 9.16-14.06 14.28-14.06L14.28-14.06 14.28-15.5Q14.28-16.77 13.48-17.38 12.67-17.99 10.91-17.99L10.91-17.99Q9.45-17.99 8.4-17.69 7.35-17.38 6.13-16.87L6.13-16.87Q5.49-16.58 5.35-16.58L5.35-16.58Q4.91-16.58 4.38-17.24 3.86-17.9 3.47-18.75 3.08-19.6 3.08-20.04L3.08-20.04Q3.08-20.8 4.16-21.5 5.25-22.19 7.15-22.62 9.06-23.05 11.38-23.05L11.38-23.05Q16.26-23.05 18.48-21.11 20.7-19.17 20.7-15.8L20.7-15.8 20.7-7.67Q20.7-5.64 20.81-4.52 20.92-3.39 21.12-2.29L21.12-2.29Q21.24-1.64 21.24-1.37L21.24-1.37Q21.24-0.88 20.32-0.56 19.41-0.24 18.24-0.1 17.07 0.05 16.36 0.05L16.36 0.05Q15.6 0.05 15.27-0.6 14.94-1.25 14.75-2.37L14.75-2.37Q14.72-2.51 14.7-2.66 14.67-2.81 14.62-2.95L14.62-2.95Q14.38-2.49 13.59-1.71 12.79-0.93 11.43-0.28 10.06 0.37 8.25 0.37L8.25 0.37ZM10.38-4.74Q11.6-4.74 12.67-5.51 13.75-6.27 14.28-7.47L14.28-7.47 14.28-9.86Q8.2-9.86 8.2-6.67L8.2-6.67Q8.2-5.81 8.78-5.27 9.35-4.74 10.38-4.74L10.38-4.74ZM33.47 0.07Q32.44 0.07 31.82-0.12 31.2-0.32 31.03-0.83L31.03-0.83 24.14-21.04Q24.12-21.19 24.05-21.45 23.97-21.7 23.97-21.83L23.97-21.83Q23.97-22.31 24.61-22.55 25.24-22.78 26.61-22.78L26.61-22.78 28.02-22.78Q29.07-22.78 29.71-22.57 30.34-22.36 30.49-21.88L30.49-21.88 33.03-13.87Q33.15-13.43 33.79-10.69L33.79-10.69 34.25-8.62 34.45-8.62Q35.2-12.45 35.64-13.87L35.64-13.87 38.21-21.88Q38.35-22.36 38.97-22.57 39.6-22.78 40.65-22.78L40.65-22.78 41.72-22.78Q43.06-22.78 43.69-22.55 44.31-22.31 44.31-21.83L44.31-21.83Q44.31-21.44 44.19-21.04L44.19-21.04 37.28-0.83Q37.13-0.34 36.51-0.13 35.89 0.07 34.86 0.07L34.86 0.07 33.47 0.07ZM52.95 0.37Q49.63 0.37 48.08-1.38 46.53-3.13 46.53-6.01L46.53-6.01Q46.53-8.18 47.43-9.92 48.33-11.67 51.09-12.87 53.85-14.06 58.98-14.06L58.98-14.06 58.98-15.5Q58.98-16.77 58.17-17.38 57.37-17.99 55.61-17.99L55.61-17.99Q54.15-17.99 53.1-17.69 52.05-17.38 50.83-16.87L50.83-16.87Q50.19-16.58 50.04-16.58L50.04-16.58Q49.6-16.58 49.08-17.24 48.55-17.9 48.16-18.75 47.77-19.6 47.77-20.04L47.77-20.04Q47.77-20.8 48.86-21.5 49.95-22.19 51.85-22.62 53.75-23.05 56.07-23.05L56.07-23.05Q60.96-23.05 63.18-21.11 65.4-19.17 65.4-15.8L65.4-15.8 65.4-7.67Q65.4-5.64 65.51-4.52 65.62-3.39 65.82-2.29L65.82-2.29Q65.94-1.64 65.94-1.37L65.94-1.37Q65.94-0.88 65.02-0.56 64.11-0.24 62.93-0.1 61.76 0.05 61.05 0.05L61.05 0.05Q60.3 0.05 59.97-0.6 59.64-1.25 59.44-2.37L59.44-2.37Q59.42-2.51 59.39-2.66 59.37-2.81 59.32-2.95L59.32-2.95Q59.08-2.49 58.28-1.71 57.49-0.93 56.12-0.28 54.76 0.37 52.95 0.37L52.95 0.37ZM55.07-4.74Q56.29-4.74 57.37-5.51 58.44-6.27 58.98-7.47L58.98-7.47 58.98-9.86Q52.9-9.86 52.9-6.67L52.9-6.67Q52.9-5.81 53.47-5.27 54.05-4.74 55.07-4.74L55.07-4.74ZM78.31 0.37Q75.94 0.37 74.1-1.01 72.26-2.39 71.22-5.04 70.18-7.69 70.18-11.38L70.18-11.38Q70.18-14.92 71.26-17.55 72.33-20.19 74.39-21.62 76.46-23.05 79.34-23.05L79.34-23.05Q81.93-23.05 83.76-21.7L83.76-21.7 83.76-31.32Q83.76-32.74 86.37-32.74L86.37-32.74 87.59-32.74Q88.93-32.74 89.56-32.39 90.18-32.03 90.18-31.32L90.18-31.32 90.18-7.67Q90.18-5.64 90.29-4.52 90.4-3.39 90.59-2.29L90.59-2.29Q90.72-1.64 90.72-1.37L90.72-1.37Q90.72-0.88 89.8-0.56 88.88-0.24 87.72-0.1 86.56 0.05 85.86 0.05L85.86 0.05Q85.1 0.05 84.79-0.54 84.49-1.12 84.25-2.25L84.25-2.25 84.1-2.91Q83.32-1.46 81.78-0.55 80.24 0.37 78.31 0.37L78.31 0.37ZM80.22-4.91Q82.27-4.91 83.76-7.47L83.76-7.47 83.76-17.16Q82.22-17.99 80.73-17.99L80.73-17.99Q76.68-17.99 76.68-11.38L76.68-11.38Q76.68-4.91 80.22-4.91L80.22-4.91ZM98.38 0.07Q95.77 0.07 95.77-1.29L95.77-1.29 95.77-31.32Q95.77-32.03 96.4-32.39 97.04-32.74 98.38-32.74L98.38-32.74 99.57-32.74Q102.19-32.74 102.19-31.32L102.19-31.32 102.19-20.12Q103.26-21.41 104.86-22.23 106.46-23.05 108.29-23.05L108.29-23.05Q111.56-23.05 113.2-21.33 114.83-19.6 114.83-16.04L114.83-16.04 114.83-1.29Q114.83 0.07 112.25 0.07L112.25 0.07 111.05 0.07Q108.41 0.07 108.41-1.29L108.41-1.29 108.41-15.06Q108.41-17.75 105.63-17.75L105.63-17.75Q104.46-17.75 103.57-16.98 102.68-16.21 102.19-15.23L102.19-15.23 102.19-1.29Q102.19 0.07 99.57 0.07L99.57 0.07 98.38 0.07ZM120.98 0.07Q118.37 0.07 118.37-1.29L118.37-1.29 118.37-5.3Q118.37-6.69 120.98-6.69L120.98-6.69 122.38-6.69Q123.72-6.69 124.34-6.34 124.96-5.98 124.96-5.3L124.96-5.3 124.96-1.29Q124.96 0.07 122.38 0.07L122.38 0.07 120.98 0.07ZM136 0.37Q133.63 0.37 131.78-1.01 129.94-2.39 128.9-5.04 127.87-7.69 127.87-11.38L127.87-11.38Q127.87-14.92 128.94-17.55 130.01-20.19 132.08-21.62 134.14-23.05 137.02-23.05L137.02-23.05Q139.61-23.05 141.44-21.7L141.44-21.7 141.44-31.32Q141.44-32.74 144.05-32.74L144.05-32.74 145.27-32.74Q146.62-32.74 147.24-32.39 147.86-32.03 147.86-31.32L147.86-31.32 147.86-7.67Q147.86-5.64 147.97-4.52 148.08-3.39 148.28-2.29L148.28-2.29Q148.4-1.64 148.4-1.37L148.4-1.37Q148.4-0.88 147.48-0.56 146.57-0.24 145.41-0.1 144.25 0.05 143.54 0.05L143.54 0.05Q142.78 0.05 142.48-0.54 142.17-1.12 141.93-2.25L141.93-2.25 141.78-2.91Q141-1.46 139.46-0.55 137.92 0.37 136 0.37L136 0.37ZM137.9-4.91Q139.95-4.91 141.44-7.47L141.44-7.47 141.44-17.16Q139.9-17.99 138.41-17.99L138.41-17.99Q134.36-17.99 134.36-11.38L134.36-11.38Q134.36-4.91 137.9-4.91L137.9-4.91ZM163.73 0.37Q158.01 0.37 155.21-2.7 152.4-5.76 152.4-11.21L152.4-11.21Q152.4-17.33 155.21-20.19 158.01-23.05 162.95-23.05L162.95-23.05Q166.22-23.05 168.31-21.56 170.39-20.07 171.36-17.55 172.32-15.04 172.32-11.87L172.32-11.87Q172.32-11.5 171.89-10.89 171.47-10.28 170.93-9.79 170.39-9.3 170.1-9.3L170.1-9.3 159.04-9.3Q159.26-6.81 160.52-5.77 161.77-4.74 164.02-4.74L164.02-4.74Q165.24-4.74 166.23-5.02 167.22-5.3 168.34-5.76L168.34-5.76Q169.03-6.08 169.27-6.08L169.27-6.08Q169.71-6.08 170.23-5.46 170.76-4.83 171.14-4.03 171.52-3.22 171.52-2.78L171.52-2.78Q171.52-1.78 170.16-1.07 168.81-0.37 166.96 0 165.12 0.37 163.73 0.37L163.73 0.37ZM159.04-13.57L166.07-13.57Q166.07-15.58 165.29-16.78 164.51-17.99 162.95-17.99L162.95-17.99Q159.72-17.99 159.04-13.57L159.04-13.57ZM183.79 0.07Q182.77 0.07 182.15-0.12 181.52-0.32 181.35-0.83L181.35-0.83 174.47-21.04Q174.44-21.19 174.37-21.45 174.3-21.7 174.3-21.83L174.3-21.83Q174.3-22.31 174.93-22.55 175.57-22.78 176.93-22.78L176.93-22.78 178.35-22.78Q179.4-22.78 180.03-22.57 180.67-22.36 180.81-21.88L180.81-21.88 183.35-13.87Q183.48-13.43 184.11-10.69L184.11-10.69 184.57-8.62 184.77-8.62Q185.53-12.45 185.97-13.87L185.97-13.87 188.53-21.88Q188.68-22.36 189.3-22.57 189.92-22.78 190.97-22.78L190.97-22.78 192.05-22.78Q193.39-22.78 194.01-22.55 194.63-22.31 194.63-21.83L194.63-21.83Q194.63-21.44 194.51-21.04L194.51-21.04 187.6-0.83Q187.46-0.34 186.83-0.13 186.21 0.07 185.19 0.07L185.19 0.07 183.79 0.07Z" opacity="1" transform="matrix(1,0,0,1,0,0)" fill="#6415ff" class="undefined-text-0" data-fill-palette-color="primary" id="text-0"></path></svg></g></svg></g></svg></g></svg></g></svg></g><defs></defs></svg><rect width="395.5199999999999" height="67.90644720182324" fill="none" stroke="none" visibility="hidden"></rect></g></svg></g></svg>